<svg width="48" height="48" viewBox="0 0 48 48" fill="none" xmlns="http://www.w3.org/2000/svg">
<mask id="mask0_163_464" style="mask-type:alpha" maskUnits="userSpaceOnUse" x="0" y="0" width="48" height="48">
<rect width="48" height="48" fill="#D9D9D9"/>
</mask>
<g mask="url(#mask0_163_464)">
<path d="M6 27L22 4V27H6ZM13.65 23H18V16.75L13.65 23ZM25 27C25.4 26.0667 25.8333 24.4333 26.3 22.1C26.7667 19.7667 27 17.4 27 15C27 12.6 26.775 10.1333 26.325 7.6C25.875 5.06667 25.4333 3.2 25 2C27.0333 2.6 29.0583 3.71667 31.075 5.35C33.0917 6.98333 34.9083 8.93333 36.525 11.2C38.1417 13.4667 39.4583 15.9583 40.475 18.675C41.4917 21.3917 42 24.1667 42 27H25ZM30.2 23H37.6C37.0333 20.4333 36.1083 18.0833 34.825 15.95C33.5417 13.8167 32.1833 12 30.75 10.5C30.8167 11.2 30.875 11.925 30.925 12.675C30.975 13.425 31 14.2 31 15C31 16.5667 30.925 18.0167 30.775 19.35C30.625 20.6833 30.4333 21.9 30.2 23ZM18 38C16.8 38 15.6833 37.7167 14.65 37.15C13.6167 36.5833 12.7333 35.8667 12 35C11.5333 35.5 11.025 35.9667 10.475 36.4C9.925 36.8333 9.31667 37.1833 8.65 37.45C7.48333 36.5833 6.49167 35.5083 5.675 34.225C4.85833 32.9417 4.3 31.5333 4 30H44C43.7 31.5333 43.1417 32.9417 42.325 34.225C41.5083 35.5083 40.5167 36.5833 39.35 37.45C38.6833 37.1833 38.075 36.8333 37.525 36.4C36.975 35.9667 36.4667 35.5 36 35C35.2333 35.8667 34.3417 36.5833 33.325 37.15C32.3083 37.7167 31.2 38 30 38C28.8 38 27.6833 37.7167 26.65 37.15C25.6167 36.5833 24.7333 35.8667 24 35C23.2667 35.8667 22.3833 36.5833 21.35 37.15C20.3167 37.7167 19.2 38 18 38ZM4 46V42H6C7.06667 42 8.10833 41.8333 9.125 41.5C10.1417 41.1667 11.1 40.6667 12 40C12.9 40.6667 13.8583 41.1583 14.875 41.475C15.8917 41.7917 16.9333 41.95 18 41.95C19.0667 41.95 20.1 41.7917 21.1 41.475C22.1 41.1583 23.0667 40.6667 24 40C24.9 40.6667 25.8583 41.1583 26.875 41.475C27.8917 41.7917 28.9333 41.95 30 41.95C31.0667 41.95 32.1 41.7917 33.1 41.475C34.1 41.1583 35.0667 40.6667 36 40C36.9333 40.6667 37.9 41.1667 38.9 41.5C39.9 41.8333 40.9333 42 42 42H44V46H42C40.9667 46 39.95 45.875 38.95 45.625C37.95 45.375 36.9667 45 36 44.5C35.0333 45 34.05 45.375 33.05 45.625C32.05 45.875 31.0333 46 30 46C28.9667 46 27.95 45.875 26.95 45.625C25.95 45.375 24.9667 45 24 44.5C23.0333 45 22.05 45.375 21.05 45.625C20.05 45.875 19.0333 46 18 46C16.9667 46 15.95 45.875 14.95 45.625C13.95 45.375 12.9667 45 12 44.5C11.0333 45 10.05 45.375 9.05 45.625C8.05 45.875 7.03333 46 6 46H4Z" fill="#8CC6D7"/>
</g>
</svg>
